# xmcd
#
# Track frame offsets:
#	150
#	21085
#	42947
#	71375
#	94652
#	115870
#	140877
#	161212
#	193247
#
# Disc length: 3006 seconds
#
# Revision: 2
# Processed by: cddbd v1.5.1PL2 Copyright (c) Steve Scherf et al.
# Submitted via: dBpowerAMP V4.0
#
DISCID=7f0bbc09
DTITLE=Dixieland Parade - Tiger Rag
DYEAR=1900
DGENRE=Jazz
TTITLE0=Hirt, Al - Bourbon Street Parade
TTITLE1=Dukes of Dixieland - Tiger Rag
TTITLE2=Alliance Hall Dixieland Band - Tin Roof Blues
TTITLE3=Alliance Hall Dixieland Band - The Sheik of Araby
TTITLE4=Hirt, Al - Birth of the Blues
TTITLE5=Hirt, Al - Struttin' With Some Barbeque
TTITLE6=Alliance Hall Dixieland Band - Marie
TTITLE7=Hirt, Al - Basin Street Blues
TTITLE8=Dukes of Dixieland - Me and My Shadow
EXTD=
EXTT0=
EXTT1=
EXTT2=
EXTT3=
EXTT4=
EXTT5=
EXTT6=
EXTT7=
EXTT8=
PLAYORDER=
